# xmcd
#
# Track frame offsets: 
#        150
#        10508
#        19622
#        30787
#        44066
#        55585
#        67675
#        80244
#        91286
#        105656
#        122417
#        133158
#        146133
#        158510
#        169050
#
# Disc length: 2387 seconds
#
# Revision: 0
# Processed by: cddbd v1.5.1PL0 Copyright (c) Steve Scherf et al.
# Submitted via: ExactAudioCopy v0.95a5
#
DISCID=b209510f
DTITLE=Marty Robbins - The Great Marty Robbins Disk 2
DYEAR=2003
DGENRE=Classic Country
TTITLE0=The Hawaiian Wedding Song
TTITLE1=Ruby Ann
TTITLE2=Begging To You
TTITLE3=The Cowboy In The Continental Suit
TTITLE4=Ribbon Of Darkness
TTITLE5=I'll Go On Alone
TTITLE6=I Couldn't Keep From Crying
TTITLE7=I Can't Quit (I've Gone Too Far)
TTITLE8=Cool Water
TTITLE9=Adios Amigo
TTITLE10=She Was Only Seventeen (He Was One Year More)
TTITLE11=The Hanging Tree
TTITLE12=Tomorrow You'll Be Gone
TTITLE13=Pain And Misery
TTITLE14=Five Brothers
EXTD=
EXTT0=
EXTT1=
EXTT2=
EXTT3=
EXTT4=
EXTT5=
EXTT6=
EXTT7=
EXTT8=
EXTT9=
EXTT10=
EXTT11=
EXTT12=
EXTT13=
EXTT14=
PLAYORDER=
